<?xml version="1.0" standalone="no"?>
<!DOCTYPE svg PUBLIC "-//W3C//DTD SVG 20010904//EN"
 "http://www.w3.org/TR/2001/REC-SVG-20010904/DTD/svg10.dtd">
<svg version="1.0" xmlns="http://www.w3.org/2000/svg"
 width="700.000000pt" height="700.000000pt" viewBox="0 0 700.000000 700.000000"
 preserveAspectRatio="xMidYMid meet">
<metadata>
Created by potrace 1.14, written by Peter Selinger 2001-2017
</metadata>
<g transform="translate(0.000000,700.000000) scale(0.100000,-0.100000)"
fill="#000000" stroke="none">
<path d="M3447 6974 c-1 -1 -24 -4 -52 -7 -122 -14 -181 -36 -610 -227 -22
-10 -103 -46 -180 -80 -77 -34 -162 -72 -190 -85 -27 -12 -84 -37 -125 -55
-41 -18 -93 -40 -115 -50 -22 -10 -103 -46 -180 -80 -77 -34 -162 -72 -190
-85 -27 -12 -120 -53 -205 -90 -155 -68 -219 -96 -318 -141 -29 -13 -55 -24
-57 -24 -3 0 -53 -22 -111 -50 -58 -27 -108 -50 -111 -50 -2 0 -36 -22 -76
-49 -161 -109 -285 -268 -345 -446 -19 -55 -23 -73 -37 -145 -8 -42 -14 -101
-20 -190 -3 -47 -7 -94 -9 -105 -2 -11 -7 -67 -10 -125 -4 -58 -9 -121 -11
-140 -2 -19 -7 -75 -10 -125 -4 -49 -8 -106 -10 -125 -2 -19 -6 -78 -10 -130
-3 -52 -8 -111 -10 -130 -3 -19 -7 -69 -10 -110 -3 -41 -7 -95 -10 -120 -2
-25 -7 -88 -10 -140 -4 -52 -8 -106 -10 -120 -2 -14 -6 -63 -10 -110 -3 -47
-8 -107 -10 -135 -2 -27 -7 -86 -10 -130 -3 -44 -8 -96 -10 -115 -2 -19 -7
-78 -10 -131 -3 -53 -8 -110 -10 -125 -2 -16 -6 -74 -10 -129 -4 -55 -9 -107
-10 -115 -2 -9 -6 -67 -10 -130 -3 -63 -8 -126 -10 -140 -2 -14 -6 -61 -9
-105 -4 -44 -8 -105 -11 -135 -3 -30 -7 -82 -10 -115 -8 -114 -17 -220 -20
-255 -2 -19 -6 -78 -10 -130 -4 -52 -9 -111 -11 -130 -14 -101 -13 -290 1
-361 70 -366 328 -639 680 -719 72 -17 72 -17 160 -35 111 -24 105 -22 155
-34 25 -5 59 -12 75 -15 43 -8 93 -19 355 -77 25 -5 54 -11 65 -14 11 -2 52
-10 90 -19 39 -8 82 -17 95 -20 14 -2 131 -28 260 -56 129 -28 257 -55 283
-60 27 -6 52 -12 55 -14 4 -2 25 -7 47 -10 22 -4 47 -8 55 -11 8 -2 26 -6 40
-9 14 -2 57 -11 95 -19 128 -28 349 -75 405 -87 30 -6 82 -17 115 -25 96 -22
144 -28 236 -27 98 1 105 2 294 44 77 16 149 32 160 34 11 2 115 24 230 49
247 54 227 50 380 81 119 24 165 34 248 54 23 6 53 13 67 15 14 3 36 7 50 10
14 3 36 8 50 11 14 3 36 7 50 10 14 3 75 16 135 29 169 37 487 106 515 111 14
3 75 16 135 29 61 13 124 27 140 30 17 3 41 8 55 11 153 30 301 95 407 179
162 129 278 315 323 523 16 71 18 114 15 232 -3 80 -7 161 -9 180 -2 19 -7 76
-11 125 -3 50 -8 106 -10 125 -2 19 -6 78 -10 130 -4 52 -9 111 -11 130 -1 19
-6 73 -9 120 -3 47 -8 101 -10 120 -1 19 -6 76 -10 125 -3 50 -8 108 -10 130
-3 36 -6 72 -20 255 -6 76 -15 176 -20 230 -2 25 -7 86 -10 135 -4 50 -8 106
-10 125 -2 19 -6 76 -10 125 -3 50 -8 106 -10 125 -2 19 -6 73 -10 120 -3 47
-8 101 -10 120 -2 19 -7 76 -10 125 -3 50 -8 106 -10 125 -2 19 -6 78 -10 130
-3 52 -8 111 -10 130 -2 19 -6 73 -10 120 -3 47 -7 103 -10 125 -2 22 -7 74
-10 115 -3 41 -8 104 -10 140 -3 36 -8 94 -11 130 -2 36 -7 88 -9 115 -3 28
-7 80 -10 116 -12 153 -86 334 -195 473 -37 48 -139 140 -199 180 -73 49 -66
45 -386 186 -126 56 -255 113 -285 127 -30 14 -100 44 -155 68 -94 40 -181 79
-250 110 -82 38 -623 276 -635 280 -3 1 -32 14 -65 29 -33 15 -107 48 -165 73
-58 25 -143 63 -189 84 -99 46 -204 83 -282 99 -47 9 -205 20 -212 14z"/>
</g>
</svg>
